<?xml version="1.0" encoding="UTF-8"?>
<svg id="Layer_1" xmlns="http://www.w3.org/2000/svg" version="1.1" viewBox="0 0 31.88 32">
  <!-- Generator: Adobe Illustrator 29.5.1, SVG Export Plug-In . SVG Version: 2.1.0 Build 141)  -->
  <defs>
    <style>
      .st0 {
        fill: #201747;
      }

      .st1 {
        fill: #ef3a4c;
      }
    </style>
  </defs>
  <path class="st0" d="M31.77,4.72l-5.63,10.07-6.03,10.79-3.31,5.92c-.31.55-1.1.56-1.42,0l-3.25-5.69-6.26-10.98L.11,4.73c-.34-.6.17-1.33.85-1.21l4.78.85,10.21,1.83c.1.02.19.02.29,0l9.1-1.65,5.58-1.02c.67-.13,1.19.59.85,1.19Z"/>
  <path class="st1" d="M26.34,11.56c.44-.7.66-1.46.66-2.27,0-2.09-.56-3.67-1.66-4.74-.1-.11-.2-.2-.3-.29-1.31-1.09-3.12-1.64-5.43-1.64H5.59c.06.53.1,1.11.15,1.75.06.97.11,2.07.13,3.3v7.16l6.26,10.98h3.56c1.67,0,3.14-.08,4.42-.23l6.03-10.79c-.22-.21-.46-.39-.73-.55-.49-.29-1.04-.49-1.64-.58.29-.09.56-.22.83-.38.73-.44,1.31-1.01,1.74-1.72ZM18.02,9.94c0,.54-.13.98-.4,1.33-.27.34-.76.51-1.47.51h-1.24v-3.68h1.24c.71.03,1.2.2,1.47.53.27.34.4.77.4,1.31ZM17.93,19.76c-.33.37-.87.56-1.62.56h-1.4v-3.93h1.4c.77,0,1.31.19,1.64.57.32.37.48.85.48,1.43,0,.54-.17,1-.5,1.37Z"/>
</svg>